<mxfile host="app.diagrams.net" agent="Mozilla/5.0 (Macintosh; Intel Mac OS X 10_15_7) AppleWebKit/537.36 (KHTML, like Gecko) Chrome/133.0.0.0 Safari/537.36" version="26.1.0">
  <diagram name="第 1 页" id="Lcy0gmbsBxj7cLXM_hUn">
    <mxGraphModel dx="954" dy="649" grid="1" gridSize="10" guides="1" tooltips="1" connect="1" arrows="1" fold="1" page="1" pageScale="1" pageWidth="827" pageHeight="1169" math="0" shadow="0">
      <root>
        <mxCell id="0" />
        <mxCell id="1" parent="0" />
        <mxCell id="q8qHRl50Two6YGQQQdLG-1" value="" style="rounded=0;whiteSpace=wrap;html=1;" vertex="1" parent="1">
          <mxGeometry x="150" y="80" width="830" height="120" as="geometry" />
        </mxCell>
        <mxCell id="q8qHRl50Two6YGQQQdLG-2" value="&lt;font style=&quot;font-size: 20px;&quot;&gt;前端展示层&lt;/font&gt;" style="text;html=1;align=center;verticalAlign=middle;whiteSpace=wrap;rounded=0;" vertex="1" parent="1">
          <mxGeometry x="170" y="125" width="120" height="30" as="geometry" />
        </mxCell>
        <mxCell id="q8qHRl50Two6YGQQQdLG-3" value="&lt;font style=&quot;font-size: 20px;&quot;&gt;PC&lt;/font&gt;&lt;div&gt;React&lt;/div&gt;" style="ellipse;whiteSpace=wrap;html=1;" vertex="1" parent="1">
          <mxGeometry x="360" y="100" width="120" height="80" as="geometry" />
        </mxCell>
        <mxCell id="q8qHRl50Two6YGQQQdLG-4" value="&lt;font style=&quot;font-size: 20px;&quot;&gt;PDA&lt;/font&gt;&lt;div&gt;&lt;span style=&quot;color: rgb(31, 31, 31); font-family: Arial, sans-serif; text-align: start; background-color: rgb(255, 255, 255);&quot;&gt;&lt;font&gt;Android&lt;/font&gt;&lt;/span&gt;&lt;/div&gt;" style="ellipse;whiteSpace=wrap;html=1;" vertex="1" parent="1">
          <mxGeometry x="504" y="100" width="120" height="80" as="geometry" />
        </mxCell>
        <mxCell id="q8qHRl50Two6YGQQQdLG-5" value="&lt;span style=&quot;font-size: 20px;&quot;&gt;大屏&lt;/span&gt;&lt;br&gt;&lt;div&gt;&lt;span style=&quot;color: rgb(31, 31, 31); font-family: Arial, sans-serif; text-align: start; background-color: rgb(255, 255, 255);&quot;&gt;&lt;font&gt;&amp;nbsp;React&lt;/font&gt;&lt;/span&gt;&lt;/div&gt;" style="ellipse;whiteSpace=wrap;html=1;" vertex="1" parent="1">
          <mxGeometry x="630" y="100" width="120" height="80" as="geometry" />
        </mxCell>
        <mxCell id="q8qHRl50Two6YGQQQdLG-6" value="&lt;span style=&quot;font-size: 20px;&quot;&gt;钉钉小程序&lt;/span&gt;&lt;br&gt;&lt;div&gt;&lt;span style=&quot;color: rgb(31, 31, 31); font-family: Arial, sans-serif; text-align: start; background-color: rgb(255, 255, 255);&quot;&gt;&lt;font&gt;&amp;nbsp;H5&lt;/font&gt;&lt;/span&gt;&lt;/div&gt;" style="ellipse;whiteSpace=wrap;html=1;" vertex="1" parent="1">
          <mxGeometry x="770" y="100" width="120" height="80" as="geometry" />
        </mxCell>
        <mxCell id="q8qHRl50Two6YGQQQdLG-7" value="" style="rounded=0;whiteSpace=wrap;html=1;" vertex="1" parent="1">
          <mxGeometry x="150" y="210" width="830" height="120" as="geometry" />
        </mxCell>
        <mxCell id="q8qHRl50Two6YGQQQdLG-8" value="&lt;font style=&quot;font-size: 20px;&quot;&gt;访问控制层&lt;/font&gt;" style="text;html=1;align=center;verticalAlign=middle;whiteSpace=wrap;rounded=0;" vertex="1" parent="1">
          <mxGeometry x="170" y="255" width="120" height="30" as="geometry" />
        </mxCell>
        <mxCell id="q8qHRl50Two6YGQQQdLG-9" value="&lt;span style=&quot;font-size: 20px;&quot;&gt;Nginx&lt;/span&gt;&lt;br&gt;&lt;div&gt;反向代理&lt;/div&gt;" style="ellipse;whiteSpace=wrap;html=1;" vertex="1" parent="1">
          <mxGeometry x="340" y="230" width="120" height="80" as="geometry" />
        </mxCell>
        <mxCell id="q8qHRl50Two6YGQQQdLG-10" value="&lt;span style=&quot;font-size: 20px;&quot;&gt;Spring Cloud Gateway&lt;/span&gt;&lt;br&gt;&lt;div&gt;网关&lt;/div&gt;" style="ellipse;whiteSpace=wrap;html=1;" vertex="1" parent="1">
          <mxGeometry x="490" y="230" width="220" height="80" as="geometry" />
        </mxCell>
        <mxCell id="q8qHRl50Two6YGQQQdLG-11" value="&lt;span style=&quot;font-size: 20px;&quot;&gt;Shiro&lt;/span&gt;&lt;br&gt;&lt;div&gt;&lt;span style=&quot;color: rgb(31, 31, 31); font-family: Arial, sans-serif; text-align: start; background-color: rgb(255, 255, 255);&quot;&gt;&lt;font&gt;&amp;nbsp;权限控制&lt;/font&gt;&lt;/span&gt;&lt;/div&gt;" style="ellipse;whiteSpace=wrap;html=1;" vertex="1" parent="1">
          <mxGeometry x="750" y="230" width="120" height="80" as="geometry" />
        </mxCell>
        <mxCell id="q8qHRl50Two6YGQQQdLG-12" value="" style="rounded=0;whiteSpace=wrap;html=1;" vertex="1" parent="1">
          <mxGeometry x="149" y="340" width="830" height="260" as="geometry" />
        </mxCell>
        <mxCell id="q8qHRl50Two6YGQQQdLG-13" value="&lt;font style=&quot;font-size: 20px;&quot;&gt;服务治理层&lt;/font&gt;" style="text;html=1;align=center;verticalAlign=middle;whiteSpace=wrap;rounded=0;" vertex="1" parent="1">
          <mxGeometry x="827" y="360" width="120" height="30" as="geometry" />
        </mxCell>
        <mxCell id="q8qHRl50Two6YGQQQdLG-14" value="&lt;font style=&quot;font-size: 20px;&quot;&gt;中台服务层&lt;/font&gt;" style="text;html=1;align=center;verticalAlign=middle;whiteSpace=wrap;rounded=0;" vertex="1" parent="1">
          <mxGeometry x="170" y="360" width="120" height="30" as="geometry" />
        </mxCell>
        <mxCell id="q8qHRl50Two6YGQQQdLG-15" value="&lt;span style=&quot;font-size: 20px;&quot;&gt;OMS&lt;/span&gt;" style="ellipse;whiteSpace=wrap;html=1;" vertex="1" parent="1">
          <mxGeometry x="170" y="400" width="70" height="50" as="geometry" />
        </mxCell>
        <mxCell id="q8qHRl50Two6YGQQQdLG-16" value="&lt;span style=&quot;font-size: 20px;&quot;&gt;WMS&lt;/span&gt;&lt;span style=&quot;color: rgba(0, 0, 0, 0); font-family: monospace; font-size: 0px; text-align: start; text-wrap-mode: nowrap;&quot;&gt;%3CmxGraphModel%3E%3Croot%3E%3CmxCell%20id%3D%220%22%2F%3E%3CmxCell%20id%3D%221%22%20parent%3D%220%22%2F%3E%3CmxCell%20id%3D%222%22%20value%3D%22%26lt%3Bspan%20style%3D%26quot%3Bfont-size%3A%2020px%3B%26quot%3B%26gt%3BOMS%26lt%3B%2Fspan%26gt%3B%22%20style%3D%22ellipse%3BwhiteSpace%3Dwrap%3Bhtml%3D1%3B%22%20vertex%3D%221%22%20parent%3D%221%22%3E%3CmxGeometry%20x%3D%22170%22%20y%3D%22400%22%20width%3D%2270%22%20height%3D%2250%22%20as%3D%22geometry%22%2F%3E%3C%2FmxCell%3E%3C%2Froot%3E%3C%2FmxGraphModel%3E&lt;/span&gt;" style="ellipse;whiteSpace=wrap;html=1;" vertex="1" parent="1">
          <mxGeometry x="250" y="400" width="70" height="50" as="geometry" />
        </mxCell>
        <mxCell id="q8qHRl50Two6YGQQQdLG-17" value="&lt;span style=&quot;font-size: 20px;&quot;&gt;TMS&lt;/span&gt;" style="ellipse;whiteSpace=wrap;html=1;" vertex="1" parent="1">
          <mxGeometry x="330" y="400" width="70" height="50" as="geometry" />
        </mxCell>
        <mxCell id="q8qHRl50Two6YGQQQdLG-18" value="&lt;span style=&quot;font-size: 20px;&quot;&gt;BMS&lt;/span&gt;" style="ellipse;whiteSpace=wrap;html=1;" vertex="1" parent="1">
          <mxGeometry x="410" y="400" width="70" height="50" as="geometry" />
        </mxCell>
        <mxCell id="q8qHRl50Two6YGQQQdLG-19" value="&lt;span style=&quot;font-size: 20px;&quot;&gt;Eureka&lt;/span&gt;&lt;br&gt;&lt;div&gt;注册中心&lt;/div&gt;" style="ellipse;whiteSpace=wrap;html=1;" vertex="1" parent="1">
          <mxGeometry x="830" y="410" width="120" height="80" as="geometry" />
        </mxCell>
      </root>
    </mxGraphModel>
  </diagram>
</mxfile>
